<?xml version="1.0" standalone="no"?>
<!DOCTYPE svg PUBLIC "-//W3C//DTD SVG 20010904//EN"
 "http://www.w3.org/TR/2001/REC-SVG-20010904/DTD/svg10.dtd">
<svg version="1.0" xmlns="http://www.w3.org/2000/svg"
 width="1920.000000pt" height="1920.000000pt" viewBox="0 0 1920.000000 1920.000000"
 preserveAspectRatio="xMidYMid meet">
<metadata>
Created by potrace 1.14, written by Peter Selinger 2001-2017
</metadata>
<g transform="translate(0.000000,1920.000000) scale(0.100000,-0.100000)"
fill="#000000" stroke="none">
<path d="M10130 14997 c-3 -3 -48 -7 -100 -8 -268 -5 -735 -87 -1074 -189
-884 -265 -1641 -766 -2148 -1420 -49 -63 -99 -128 -111 -144 l-23 -29 -69
103 c-403 607 -1034 1030 -1740 1169 -243 48 -555 62 -810 36 -345 -35 -688
-139 -995 -302 -712 -379 -1228 -1063 -1388 -1843 -48 -230 -56 -317 -56 -565
-1 -249 8 -339 55 -569 67 -327 198 -640 393 -936 99 -151 204 -278 349 -423
l108 -109 -20 -87 c-45 -197 -56 -305 -56 -566 0 -191 5 -277 18 -365 24 -153
68 -342 109 -468 l34 -102 -104 -76 c-130 -96 -320 -278 -425 -409 -422 -524
-563 -1157 -398 -1790 186 -713 801 -1319 1596 -1571 209 -67 415 -109 590
-122 133 -9 10460 -9 10595 0 182 13 342 38 550 84 971 218 1794 807 2239
1603 164 292 276 637 323 991 19 145 16 519 -6 665 -116 780 -511 1429 -1171
1925 -334 250 -653 414 -1069 549 -209 68 -522 137 -701 155 -115 12 -160 18
-163 21 -2 2 5 30 16 63 42 120 103 379 127 542 37 248 39 660 4 915 -52 385
-198 821 -386 1159 -166 297 -345 535 -598 795 -268 275 -551 497 -877 690
-131 77 -466 240 -613 298 -389 152 -889 275 -1260 308 -38 3 -88 8 -110 11
-66 7 -630 17 -635 11z m745 -646 c188 -26 390 -63 520 -97 810 -207 1514
-643 1984 -1229 342 -425 535 -861 618 -1395 25 -161 25 -538 0 -700 -49 -313
-119 -545 -249 -821 -49 -106 -59 -137 -62 -191 -6 -111 38 -205 127 -269 62
-45 104 -52 332 -55 516 -6 979 -113 1410 -324 298 -147 521 -305 745 -530
206 -206 343 -394 455 -625 82 -169 159 -393 179 -525 3 -19 8 -45 10 -57 16
-78 28 -287 23 -403 -11 -256 -55 -459 -152 -700 -150 -373 -432 -732 -781
-994 -425 -318 -882 -503 -1464 -592 -109 -17 -403 -18 -5330 -22 -3811 -2
-5245 0 -5328 8 -157 16 -319 51 -480 105 -625 209 -1068 672 -1179 1232 -24
122 -24 376 0 496 92 455 376 820 845 1087 216 123 262 263 159 486 -67 147
-94 222 -133 373 -166 642 -9 1308 436 1857 72 90 267 284 361 360 100 83 271
198 404 275 313 179 728 316 1142 375 169 24 576 29 759 10 206 -22 248 -21
311 8 56 27 123 88 148 136 9 18 29 91 45 164 95 442 255 789 538 1166 107
142 434 472 582 586 426 329 900 560 1440 703 134 35 125 33 345 72 283 50
404 58 765 54 259 -2 356 -7 475 -24z m-6283 -457 c744 -96 1376 -568 1674
-1251 l45 -103 -50 -132 c-27 -73 -59 -169 -71 -213 l-22 -80 -281 0 c-295 0
-407 -9 -657 -51 -1021 -171 -1923 -757 -2401 -1560 l-63 -105 -23 28 c-257
302 -419 654 -490 1058 -24 139 -24 499 0 640 98 562 376 1025 819 1360 294
223 668 372 1038 414 126 14 351 12 482 -5z"/>
</g>
</svg>
